<?xml version="1.0" standalone="no"?>
<!DOCTYPE svg PUBLIC "-//W3C//DTD SVG 20010904//EN"
 "http://www.w3.org/TR/2001/REC-SVG-20010904/DTD/svg10.dtd">
<svg version="1.0" xmlns="http://www.w3.org/2000/svg"
 width="512.000000pt" height="512.000000pt" viewBox="0 0 512.000000 512.000000"
 preserveAspectRatio="xMidYMid meet">

<g transform="translate(0.000000,512.000000) scale(0.100000,-0.100000)"
fill="#000000" stroke="none">
<path d="M2380 5061 c-774 -318 -2150 -895 -2169 -909 -37 -27 -61 -64 -71
-108 -6 -23 -7 -590 -4 -1374 l6 -1335 24 -41 c13 -23 33 -48 46 -56 71 -46
2263 -1149 2302 -1158 32 -7 60 -7 92 0 51 12 2238 1117 2294 1159 19 15 45
47 57 72 l22 44 2 1336 c1 1327 1 1336 -19 1375 -25 48 -63 89 -101 108 -16 9
-527 223 -1137 477 -742 309 -1124 463 -1154 466 -38 3 -69 -6 -190 -56z
m1069 -705 c469 -196 860 -360 867 -364 13 -7 -1729 -862 -1758 -862 -19 0
-1769 852 -1763 859 3 2 400 170 883 371 638 267 882 365 897 359 11 -4 404
-167 874 -363z m1151 -1759 l0 -1094 -920 -466 c-506 -257 -922 -467 -925
-467 -3 0 -5 492 -5 1093 l1 1092 922 467 c507 257 923 467 925 468 1 0 2
-492 2 -1093z"/>
</g>
</svg>
